<svg width="128" height="128" viewBox="0 0 128 128" xmlns="http://www.w3.org/2000/svg">
  <defs>
    <linearGradient id="dragonGradient" x1="0%" y1="0%" x2="100%" y2="100%">
      <stop offset="0%" style="stop-color:#ff6b6b;stop-opacity:1" />
      <stop offset="100%" style="stop-color:#ff8e53;stop-opacity:1" />
    </linearGradient>
  </defs>
  
  <!-- Dragon body -->
  <ellipse cx="64" cy="80" rx="40" ry="25" fill="url(#dragonGradient)" stroke="#e74c3c" stroke-width="2"/>
  
  <!-- Dragon head -->
  <ellipse cx="64" cy="45" rx="25" ry="20" fill="url(#dragonGradient)" stroke="#e74c3c" stroke-width="2"/>
  
  <!-- Dragon eyes -->
  <circle cx="58" cy="40" r="3" fill="#2c3e50"/>
  <circle cx="70" cy="40" r="3" fill="#2c3e50"/>
  <circle cx="59" cy="39" r="1" fill="#ecf0f1"/>
  <circle cx="71" cy="39" r="1" fill="#ecf0f1"/>
  
  <!-- Dragon wings -->
  <path d="M 30 60 Q 20 40 30 20 Q 40 30 50 50" fill="url(#dragonGradient)" stroke="#e74c3c" stroke-width="1"/>
  <path d="M 98 60 Q 108 40 98 20 Q 88 30 78 50" fill="url(#dragonGradient)" stroke="#e74c3c" stroke-width="1"/>
  
  <!-- Dragon tail -->
  <path d="M 104 80 Q 120 70 125 85 Q 120 95 110 90" fill="url(#dragonGradient)" stroke="#e74c3c" stroke-width="1"/>
  
  <!-- Dragon horns -->
  <path d="M 55 25 Q 50 15 55 5" stroke="#e74c3c" stroke-width="2" fill="none"/>
  <path d="M 73 25 Q 78 15 73 5" stroke="#e74c3c" stroke-width="2" fill="none"/>
</svg>
